<?xml version="1.0" encoding="utf-8"?>
<!-- Generator: Adobe Illustrator 22.0.0, SVG Export Plug-In . SVG Version: 6.00 Build 0)  -->
<svg version="1.1" id="Calque_1" xmlns="http://www.w3.org/2000/svg" xmlns:xlink="http://www.w3.org/1999/xlink" x="0px" y="0px"
	 viewBox="0 0 100 20" enable-background="new 0 0 100 20" xml:space="preserve">
<path fill="none" stroke="#000000" stroke-miterlimit="10" d="M100,7.11c0,0-0.5,3-2.5,3s-2-2-5-2s-3,2-8,2s-3-1-7-1s-3,1-7,1
	s-1-1-5-1c-3,0-5,1-13,1c-3,0-1-2-5-2s-7,2-14,2s-4-1-9.5-1.5c-2.99-0.27-2,1-7,0s-3,2-6,1s-7-1-11,0v10.5h100"/>
</svg>
