<?xml version="1.0" standalone="no"?>
<!DOCTYPE svg PUBLIC "-//W3C//DTD SVG 20010904//EN"
 "http://www.w3.org/TR/2001/REC-SVG-20010904/DTD/svg10.dtd">
<svg version="1.0" xmlns="http://www.w3.org/2000/svg"
 width="700.000000pt" height="700.000000pt" viewBox="0 0 700.000000 700.000000"
 preserveAspectRatio="xMidYMid meet">
<metadata>
Created by potrace 1.11, written by Peter Selinger 2001-2013
</metadata>
<g transform="translate(0.000000,700.000000) scale(0.100000,-0.100000)"
fill="#000000" stroke="none">
<path d="M3665 6548 c-13 -97 -104 -993 -100 -996 7 -8 277 -34 283 -28 8 8
114 1027 108 1034 -5 5 -220 31 -263 32 -18 0 -23 -7 -28 -42z"/>
<path d="M2727 6490 c-60 -15 -110 -30 -112 -32 -3 -3 235 -960 250 -1005 4
-13 257 47 262 63 3 8 -138 579 -238 967 -12 45 -15 45 -162 7z"/>
<path d="M4657 6308 c-13 -29 -113 -239 -221 -466 -108 -227 -196 -416 -196
-420 0 -14 270 -136 279 -126 11 12 441 921 441 932 0 8 -256 132 -272 132 -3
0 -18 -24 -31 -52z"/>
<path d="M1750 6039 c-47 -33 -91 -66 -98 -73 -11 -10 38 -87 274 -427 157
-228 292 -420 299 -428 11 -11 30 -2 114 55 55 38 100 72 101 76 0 12 -585
851 -595 854 -6 1 -48 -25 -95 -57z"/>
<path d="M5197 5442 l-367 -367 118 -118 117 -117 370 370 370 370 -115 115
c-63 63 -117 115 -120 115 -3 0 -170 -165 -373 -368z"/>
<path d="M991 5283 c-38 -54 -69 -98 -68 -99 1 -1 189 -134 417 -296 228 -161
420 -297 427 -301 7 -5 35 25 77 84 36 51 66 95 66 99 0 5 -303 224 -781 563
l-68 47 -70 -97z"/>
<path d="M5890 4495 c-256 -107 -472 -198 -480 -204 -13 -9 -13 -10 1 -10 23
-1 953 386 957 398 2 6 0 11 -5 10 -4 0 -217 -88 -473 -194z"/>
<path d="M543 4344 c-20 -71 -27 -107 -19 -109 116 -40 991 -284 996 -278 10
10 62 194 57 199 -2 3 -222 67 -488 144 -266 77 -491 142 -499 145 -12 4 -23
-18 -47 -101z"/>
<path d="M6040 3619 c-234 -9 -437 -18 -452 -18 -21 -1 -28 -6 -28 -21 0 -20
4 -20 103 -15 113 6 861 35 914 35 26 0 33 4 33 20 0 24 25 24 -570 -1z"/>
<path d="M905 3429 c-236 -15 -441 -28 -454 -28 -23 -1 -23 -2 -19 -96 2 -52
7 -97 10 -101 7 -6 1026 54 1038 61 3 2 4 46 2 99 l-3 96 -72 -1 c-40 -1 -265
-14 -502 -30z"/>
<path d="M5466 2898 c-3 -13 -2 -26 2 -29 8 -8 968 -309 983 -309 8 0 30 41
25 47 -2 2 -993 313 -999 313 -3 0 -7 -10 -11 -22z"/>
<path d="M1145 2539 c-259 -114 -474 -210 -479 -212 -8 -3 47 -144 63 -160 8
-8 934 393 954 412 4 4 -9 44 -30 88 l-38 81 -470 -209z"/>
<path d="M5152 2280 l-22 -29 412 -306 c226 -169 417 -309 423 -312 12 -4 45
32 45 48 0 6 -790 600 -826 622 -6 3 -20 -7 -32 -23z"/>
<path d="M1623 1769 c-205 -198 -373 -364 -373 -368 0 -4 25 -31 55 -61 l54
-53 113 106 c62 58 232 222 376 364 l264 258 -52 58 c-28 31 -55 57 -58 57 -4
0 -175 -162 -379 -361z"/>
<path d="M4643 1799 c-18 -12 -33 -23 -33 -25 0 -5 559 -856 570 -868 7 -7 37
9 79 40 5 4 -570 874 -578 874 -3 0 -21 -10 -38 -21z"/>
<path d="M2319 1237 c-126 -256 -229 -467 -229 -471 0 -5 114 -66 125 -66 5 0
467 932 463 935 -2 2 -31 17 -66 34 l-63 32 -230 -464z"/>
<path d="M3959 1507 l-35 -12 116 -505 c85 -369 120 -506 130 -508 8 -1 33 3
56 10 l40 13 -116 505 c-129 556 -115 522 -191 497z"/>
<path d="M3202 1398 c-61 -485 -114 -949 -109 -955 10 -9 111 -22 118 -14 6 7
132 1031 127 1036 -2 1 -31 5 -64 9 l-61 7 -11 -83z"/>
</g>
</svg>
