<?xml version="1.0" encoding="utf-8"?>
<!-- Generator: Adobe Illustrator 22.0.0, SVG Export Plug-In . SVG Version: 6.00 Build 0)  -->
<svg version="1.1" id="Calque_1" xmlns="http://www.w3.org/2000/svg" xmlns:xlink="http://www.w3.org/1999/xlink" x="0px" y="0px"
	 viewBox="0 0 595.3 595.3" style="enable-background:new 0 0 595.3 595.3;" xml:space="preserve">
<style type="text/css">
	.st0{fill:#010202;}
</style>
<g>
	
		<rect x="407.7" y="128.2" transform="matrix(0.7071 -0.7071 0.7071 0.7071 31.8739 361.5211)" class="st0" width="89.3" height="28.1"/>
	
		<rect x="346.6" y="86.6" transform="matrix(0.4293 -0.9032 0.9032 0.4293 133.0712 410.4161)" class="st0" width="89.3" height="26.5"/>
	
		<rect x="275.2" y="67.9" transform="matrix(0.1036 -0.9946 0.9946 0.1036 206.7309 390.1558)" class="st0" width="89.3" height="25"/>
	<polygon class="st0" points="221.9,46 244.7,40.3 266.6,126.8 243.9,132.5 	"/>
	<polygon class="st0" points="139.1,88.6 157.1,76.2 208,149.6 190,162 	"/>
	<polygon class="st0" points="78.4,154.3 90.2,137.7 163,189.5 151.2,206 	"/>
	<polygon class="st0" points="43.6,234.9 48.8,216.9 134.6,241.7 129.4,259.7 	"/>
	<polygon class="st0" points="37.2,323.4 36.2,306.2 125.4,300.7 126.4,317.9 	"/>
	<polygon class="st0" points="62.2,412 55.9,397.7 137.6,361.5 143.9,375.9 	"/>
	<polygon class="st0" points="115.6,486.2 105.8,476 170,413.8 179.8,424 	"/>
	<polygon class="st0" points="188.5,536.2 177.2,530.6 216.9,450.6 228.1,456.2 	"/>
	<polygon class="st0" points="273.3,559.4 262.3,558 273.2,469.3 284.2,470.7 	"/>
	<polygon class="st0" points="362.9,552.7 353.6,554.8 333.6,467.8 342.8,465.7 	"/>
	<polygon class="st0" points="447.6,514.7 440.9,519 391.8,444.4 398.4,440.1 	"/>
	<polygon class="st0" points="511.8,452.2 508,457.3 436.4,403.9 440.2,398.8 	"/>
	<polygon class="st0" points="550.8,373.5 549.4,378.1 464.1,351.4 465.5,346.8 	"/>
	<polygon class="st0" points="561.8,285.7 561.9,289 472.6,292.4 472.5,289.1 	"/>
	
		<rect x="456" y="213.3" transform="matrix(0.9239 -0.3827 0.3827 0.9239 -43.8306 207.9003)" class="st0" width="89.4" height="1.7"/>
</g>
</svg>
