<?xml version="1.0" encoding="utf-8"?>
<!-- Generator: Adobe Illustrator 22.0.0, SVG Export Plug-In . SVG Version: 6.00 Build 0)  -->
<svg version="1.1" id="Calque_1" xmlns="http://www.w3.org/2000/svg" xmlns:xlink="http://www.w3.org/1999/xlink" x="0px" y="0px" viewBox="0 0 79 10" style="enable-background:new 0 0 79 10;" xml:space="preserve">
    <style type="text/css">
    .st0 {
        fill: #0071B3;
    }
    </style>
    <polygon class="st0" points="70,9 70,10 64,10 64,9 66,9 66,3 64,3 64,2 65,2 65,1 66,1 66,0 68,0 68,9 " />
    <polygon class="st0" points="43,4 43,6 41,6 41,4 40,4 40,5 39,5 39,9 40,9 40,10 36,10 36,9 37,9 37,4 36,4 36,3 38,3 38,4 39,4 
	39,3 42,3 42,4 " />
    <polygon class="st0" points="25,9 25,10 23,10 23,9 22,9 22,4 21,4 21,5 20,5 20,9 22,9 22,10 19,10 19,9 18,9 18,5 19,5 19,4 20,4 
	20,3 22,3 22,1 21,1 21,0 24,0 24,9 " />
    <polygon class="st0" points="52,9 52,10 50,10 50,9 49,9 49,6 47,6 47,9 49,9 49,10 46,10 46,9 45,9 45,6 46,6 46,5 49,5 49,4 46,4 
	46,3 50,3 50,4 51,4 51,9 " />
    <path class="st0" d="M33,4V3h-5v1h-1v5h1v1h5V9h1V4H33z M29,9V4h3v5H29z" />
    <path class="st0" d="M16,6V4h-1V3h-5v1H9v5h1v1h5V9h1V8h-2v1h-3V6H16z M11,4h3v1h-3V4z" />
    <path class="st0" d="M78,1V0h-5v1h-1v8h1v1h5V9h1V1H78z M77,9h-3V7h1V6h1V5h1V9z M77,3h-1v1h-1v1h-1V1h3V3z" />
    <polygon class="st0" points="7,0 7,3 6,3 6,2 5,2 5,1 3,1 3,4 4,4 4,3 5,3 5,6 4,6 4,5 3,5 3,9 4,9 4,10 0,10 0,9 1,9 1,1 0,1 0,0 
	" />
</svg>